<svg width="92" height="25" viewBox="0 0 92 25" fill="none" xmlns="http://www.w3.org/2000/svg">
<path d="M2.904 4.696H5.136V9.112H7.872V10.864H5.136V19H2.904V10.864H1.08V9.112H2.904V4.696ZM13.737 19.24C12.601 19.24 11.625 19.016 10.809 18.568C9.993 18.104 9.361 17.48 8.913 16.696C8.481 15.896 8.265 14.984 8.265 13.96C8.265 12.984 8.513 12.096 9.009 11.296C9.505 10.496 10.169 9.856 11.001 9.376C11.833 8.896 12.761 8.656 13.785 8.656C15.097 8.656 16.185 9.04 17.049 9.808C17.913 10.576 18.497 11.632 18.801 12.976L10.617 15.856L10.089 14.536L16.809 12.088L16.329 12.4C16.137 11.872 15.817 11.416 15.369 11.032C14.921 10.632 14.337 10.432 13.617 10.432C13.009 10.432 12.465 10.584 11.985 10.888C11.505 11.176 11.129 11.576 10.857 12.088C10.585 12.6 10.449 13.184 10.449 13.84C10.449 14.528 10.593 15.136 10.881 15.664C11.169 16.176 11.561 16.584 12.057 16.888C12.569 17.176 13.145 17.32 13.785 17.32C14.217 17.32 14.633 17.24 15.033 17.08C15.449 16.92 15.833 16.712 16.185 16.456L17.217 18.112C16.721 18.448 16.161 18.72 15.537 18.928C14.929 19.136 14.329 19.24 13.737 19.24ZM24.2857 19.24C23.3577 19.24 22.5097 19.04 21.7417 18.64C20.9897 18.24 20.3897 17.656 19.9417 16.888C19.5097 16.104 19.2937 15.152 19.2937 14.032C19.2937 12.928 19.5257 11.976 19.9897 11.176C20.4537 10.36 21.0697 9.736 21.8377 9.304C22.6217 8.872 23.4777 8.656 24.4057 8.656C25.3337 8.656 26.1177 8.872 26.7577 9.304C27.3977 9.72 27.8857 10.216 28.2217 10.792L28.0777 11.176L28.2937 9.064H30.3577V19H28.1257V16.408L28.3657 16.984C28.3017 17.144 28.1577 17.352 27.9337 17.608C27.7257 17.848 27.4377 18.096 27.0697 18.352C26.7177 18.608 26.3097 18.824 25.8457 19C25.3817 19.16 24.8617 19.24 24.2857 19.24ZM24.8857 17.392C25.4457 17.392 25.9497 17.288 26.3977 17.08C26.8457 16.872 27.2137 16.584 27.5017 16.216C27.8057 15.832 28.0137 15.376 28.1257 14.848V12.904C27.9977 12.424 27.7737 12.008 27.4537 11.656C27.1337 11.288 26.7497 11.008 26.3017 10.816C25.8537 10.608 25.3577 10.504 24.8137 10.504C24.2217 10.504 23.6777 10.648 23.1817 10.936C22.6857 11.224 22.2857 11.624 21.9817 12.136C21.6937 12.648 21.5497 13.248 21.5497 13.936C21.5497 14.576 21.7017 15.16 22.0057 15.688C22.3097 16.216 22.7177 16.632 23.2297 16.936C23.7417 17.24 24.2937 17.392 24.8857 17.392ZM34.7723 9.064L34.9643 11.296L34.8683 11.104C35.2363 10.352 35.7563 9.76 36.4283 9.328C37.1163 8.896 37.9003 8.68 38.7803 8.68C39.3403 8.68 39.8363 8.768 40.2683 8.944C40.7003 9.12 41.0523 9.376 41.3243 9.712C41.6123 10.032 41.7963 10.432 41.8763 10.912L41.7563 10.984C42.1403 10.264 42.6683 9.704 43.3403 9.304C44.0283 8.888 44.7483 8.68 45.5003 8.68C46.4763 8.68 47.2443 8.96 47.8043 9.52C48.3803 10.064 48.6763 10.776 48.6923 11.656V19H46.4603V12.448C46.4443 11.936 46.3163 11.512 46.0763 11.176C45.8523 10.824 45.4523 10.632 44.8763 10.6C44.3003 10.6 43.7803 10.776 43.3163 11.128C42.8683 11.48 42.5163 11.936 42.2603 12.496C42.0043 13.04 41.8683 13.632 41.8523 14.272V19H39.6203V12.448C39.6043 11.936 39.4683 11.512 39.2123 11.176C38.9723 10.824 38.5643 10.632 37.9883 10.6C37.3963 10.6 36.8763 10.776 36.4283 11.128C35.9803 11.48 35.6283 11.936 35.3723 12.496C35.1323 13.056 35.0123 13.656 35.0123 14.296V19H32.7803V9.064H34.7723ZM54.5522 19V11.056H52.8482V9.064H54.5522V4.864C54.5522 3.424 54.8722 2.32 55.5122 1.552C56.1682 0.783999 57.1282 0.399999 58.3922 0.399999C58.7282 0.399999 59.0962 0.447999 59.4962 0.543999C59.9122 0.639999 60.2722 0.8 60.5762 1.024L59.6402 2.632C59.4962 2.488 59.3362 2.392 59.1602 2.344C58.9842 2.28 58.8082 2.248 58.6322 2.248C58.0402 2.248 57.5842 2.448 57.2642 2.848C56.9442 3.248 56.7842 3.928 56.7842 4.888V9.064H59.6162V11.056H56.7842V19H54.5522ZM61.5362 0.423999H63.7682V19H61.5362V0.423999ZM65.3541 13.936C65.3541 12.944 65.5861 12.048 66.0501 11.248C66.5301 10.448 67.1861 9.816 68.0181 9.352C68.8501 8.888 69.7941 8.656 70.8501 8.656C71.9381 8.656 72.8901 8.888 73.7061 9.352C74.5221 9.816 75.1541 10.448 75.6021 11.248C76.0501 12.048 76.2741 12.944 76.2741 13.936C76.2741 14.928 76.0501 15.832 75.6021 16.648C75.1541 17.448 74.5141 18.08 73.6821 18.544C72.8661 19.008 71.9141 19.24 70.8261 19.24C69.7701 19.24 68.8261 19.024 67.9941 18.592C67.1781 18.144 66.5301 17.528 66.0501 16.744C65.5861 15.944 65.3541 15.008 65.3541 13.936ZM67.5861 13.96C67.5861 14.6 67.7301 15.184 68.0181 15.712C68.3061 16.224 68.6901 16.632 69.1701 16.936C69.6661 17.24 70.2101 17.392 70.8021 17.392C71.4261 17.392 71.9781 17.24 72.4581 16.936C72.9541 16.632 73.3381 16.224 73.6101 15.712C73.8821 15.184 74.0181 14.6 74.0181 13.96C74.0181 13.32 73.8821 12.744 73.6101 12.232C73.3381 11.704 72.9541 11.288 72.4581 10.984C71.9781 10.664 71.4261 10.504 70.8021 10.504C70.1941 10.504 69.6421 10.664 69.1461 10.984C68.6661 11.304 68.2821 11.728 67.9941 12.256C67.7221 12.768 67.5861 13.336 67.5861 13.96ZM83.9115 9.064L86.8395 15.76L86.4075 15.808L89.1435 9.064H91.3275L86.7675 19.6L83.5755 12.784L80.6715 19.6L76.0635 9.064H78.2475L81.3435 16.072L80.5755 15.928L82.7835 10.792L81.9915 9.064H83.9115Z" fill="#1D2830"/>
<path d="M50.0169 17.728C50.0169 17.376 50.1449 17.08 50.4009 16.84C50.6729 16.584 50.9689 16.456 51.2889 16.456C51.5769 16.456 51.8489 16.584 52.1049 16.84C52.3769 17.08 52.5129 17.376 52.5129 17.728C52.5129 18.112 52.3769 18.424 52.1049 18.664C51.8489 18.888 51.5769 19 51.2889 19C50.9689 19 50.6729 18.888 50.4009 18.664C50.1449 18.424 50.0169 18.112 50.0169 17.728Z" fill="#794CFF"/>
</svg>
